<svg version="1.2" xmlns="http://www.w3.org/2000/svg" viewBox="0 0 408 311" width="408" height="311"><style>.s0{opacity: 1;fill:#afd231}</style><path class="s0" d="m247.5 0.4c8 0.2 11.9 0.9 19.5 3.5c5.2 1.8 13.3 5.3 18 7.8c4.7 2.5 12.3 7.1 17 10.3c4.7 3.1 12.8 9.2 18 13.5c5.2 4.3 15.1 13.5 22 20.4c6.9 6.9 16.5 17.5 21.4 23.6c4.8 6 12.7 16.8 17.5 24c4.7 7.1 11.2 18.2 14.3 24.5c3.1 6.3 7.2 15.8 9 21c3.1 9.1 3.3 10.1 3.3 25c0 12.1-0.4 17.1-1.9 22.5c-1 3.8-3.5 10.8-5.5 15.5c-2 4.7-6.2 12.3-9.2 17c-3.1 4.7-8.2 11.4-11.3 15c-3.2 3.6-9.2 9.6-13.4 13.3c-4.2 3.8-12.2 9.9-17.7 13.6c-5.5 3.7-15 9.2-21 12.3c-6.1 3.1-16.2 7.7-22.5 10.1c-6.3 2.5-16.5 5.8-22.5 7.5c-6.1 1.7-15.5 4-21 5.1c-5.5 1.1-15.9 2.7-23 3.6c-7.8 0.9-21.6 1.5-34.5 1.5c-12.9 0-26.7-0.6-34.5-1.5c-7.2-0.9-17.5-2.5-23-3.6c-5.5-1.1-15-3.4-21-5.1c-6.1-1.7-16.2-5-22.5-7.5c-6.3-2.4-16.5-7-22.5-10.1c-6.1-3.1-15.5-8.6-21-12.3c-5.5-3.7-13.5-9.8-17.7-13.6c-4.2-3.7-10.2-9.7-13.4-13.3c-3.1-3.6-8.2-10.3-11.3-15c-3-4.7-7.2-12.3-9.2-17c-2-4.7-4.4-11.4-5.4-15c-1-3.7-2-12-2.3-19c-0.4-10.1-0.2-13.5 1.2-17.5c0.9-2.8 2.9-6.7 4.4-8.9c1.5-2.1 5.2-5.5 8.2-7.5c3-2 9.1-4.9 13.5-6.3c4.4-1.5 11.4-3.4 15.5-4.2c4.1-0.9 17.6-3.2 30-5.1c12.4-1.9 28-4.9 34.7-6.5c6.8-1.7 16.5-4.6 21.5-6.6c5.1-1.9 12.7-5.3 16.8-7.5c4.1-2.3 10.4-6.2 14-8.9c3.6-2.6 9.9-8.3 14-12.6c4.1-4.4 9.6-11.1 12.1-14.9c2.6-3.9 6.5-10.6 8.7-15c2.2-4.4 5.6-12.7 7.7-18.5c2-5.8 4.9-13 6.6-16c1.6-3 5-7.7 7.6-10.4c2.7-2.6 6.6-5.7 8.8-6.9c2.2-1.1 5.8-2.6 8-3.4c2.6-0.8 7.5-1.2 14-0.9z" /></svg>