<svg version="1.2" xmlns="http://www.w3.org/2000/svg" viewBox="0 0 300 386" width="300" height="386"><style>.s0{opacity: 1;fill:#f47621}</style><path class="s0" d="m136.5 0.3c9.7 0.3 11.9 0.7 18.5 3.5c4.1 1.7 10.9 5.5 15 8.3c4.1 2.9 11.6 9.3 16.5 14.3c5 5 11.8 12.7 15.1 17.1c3.3 4.4 8.8 12 12.1 17c3.3 4.9 8.6 13.5 11.8 19c3.1 5.5 9.2 17 13.5 25.5c4.3 8.5 10.7 22.2 14.3 30.5c3.5 8.2 9.4 22.9 13 32.5c3.6 9.6 8.8 24.7 11.7 33.5c2.8 8.8 7.3 24.5 10 35c2.7 10.4 5.8 24.6 6.9 31.5c1.1 6.9 2.7 18.1 3.6 25c0.8 6.9 1.5 19.6 1.5 28.2c0 10.8-0.5 18.1-1.6 23c-0.9 4-2.9 10-4.4 13.3c-1.5 3.3-5.1 8.4-7.9 11.2c-3.3 3.4-7.7 6.6-12.4 8.8c-3.9 1.9-10.8 4.5-15.2 5.7c-7.3 2-10.4 2.2-34 2.2c-23 0.1-27.5-0.2-39-2.2c-7.2-1.3-19.8-4.1-28-6.2c-8.3-2.1-20.6-5.7-27.5-8c-6.9-2.3-17.5-6.2-23.5-8.7c-6.1-2.4-17.1-7.5-24.5-11.2c-7.4-3.7-17.8-9.4-23-12.7c-5.2-3.3-13.1-8.6-17.5-11.9c-4.4-3.3-11.6-9.6-16.1-14c-4.4-4.4-10.6-11.8-13.6-16.5c-3-4.7-6.8-11.7-8.4-15.5c-2.5-6.2-2.9-8.4-3.2-20.5c-0.2-8.7 0.2-17.9 1.2-26c0.9-6.9 3.2-20.2 5.1-29.5c1.9-9.4 5.3-23.8 7.5-32c2.3-8.3 6.1-20.9 8.4-28c2.4-7.2 7.2-20.2 10.6-29c3.5-8.8 10.1-23.4 14.6-32.5c4.6-9.1 11.8-21.9 16.2-28.5c4.3-6.6 11.2-16.1 15.3-21.2c4.2-5.1 11.1-12 15.5-15.4c4.3-3.4 10.6-7.5 13.9-9.2c3.3-1.7 8.5-3.9 11.5-4.9c4.3-1.4 7.9-1.7 16.5-1.5z" /></svg>