<svg version="1.2" xmlns="http://www.w3.org/2000/svg" viewBox="0 0 493 315" width="493" height="315"><style>.s0{fill:#21beeb}</style><path class="s0" d="m103 0.4c16.7 0.3 24.3 0.8 34 2.5c6.9 1.3 20.1 4.2 29.5 6.6c9.3 2.4 22.8 6.2 30 8.5c7.1 2.3 22 7.6 33 11.7c11 4.2 24.3 8.9 29.5 10.5c5.2 1.6 14 4 19.5 5.3c5.5 1.3 16.5 3.5 24.5 4.9c8 1.4 28.4 4.4 45.5 6.6c17 2.3 36.2 5 42.5 6.1c6.3 1.1 16.2 3.1 22 4.5c5.8 1.5 13.9 3.9 18 5.4c4.1 1.5 10.4 4.2 14 6c3.6 1.8 9.2 5.1 12.5 7.5c3.3 2.3 9.1 7.5 12.8 11.6c5 5.4 8.2 10.1 11.8 17.4c2.7 5.5 5.8 13.6 6.9 18c1.1 4.4 2.5 11.8 3.1 16.5c0.7 5.2 0.9 16.2 0.6 28.5c-0.3 11-1.2 24.3-2.1 29.5c-0.8 5.2-2.9 13.5-4.7 18.5c-1.9 5.2-5.7 12.6-9 17.5c-3.1 4.7-9.2 11.8-13.5 15.9c-4.4 4-11.5 9.7-15.9 12.6c-4.4 3-13.6 8.1-20.5 11.4c-6.9 3.3-17.9 7.8-24.5 10.1c-6.6 2.2-18.3 5.6-26 7.5c-7.7 1.9-21 4.6-29.5 6c-8.5 1.3-21.4 3.1-28.5 3.9c-7.2 0.9-20.9 2-30.5 2.7c-10.7 0.7-30.9 0.9-52 0.6c-23.7-0.3-38.1-1-46-2.1c-6.3-0.9-16.5-2.5-22.5-3.7c-6.1-1.1-16.9-3.5-24-5.4c-7.2-1.9-18.3-5.2-24.8-7.4c-6.4-2.3-16.3-6.1-22-8.6c-5.6-2.5-15.3-7.3-21.4-10.7c-6.2-3.5-15.4-9.2-20.4-12.8c-5.1-3.6-13.1-10.1-17.8-14.6c-4.7-4.4-11.2-11.4-14.3-15.5c-3.1-4.1-7.7-11-10.2-15.4c-2.5-4.4-5.9-12.1-7.5-17c-1.9-5.8-3.4-12.9-4-20c-0.6-6.1-1.1-26.9-1.1-46.3c0-25.8 0.4-38.3 1.5-47c0.9-6.4 2.7-16 4.1-21.2c1.4-5.2 3.9-12.9 5.7-17c1.7-4.1 5.2-10.7 7.8-14.5c2.6-3.9 7.8-9.9 11.6-13.5c4.1-3.9 10.2-8.2 14.9-10.6c4.3-2.3 11-5.2 14.9-6.4c3.8-1.3 10.1-2.9 14-3.6c4.8-0.9 13.7-1.2 28.5-1z" /></svg>