<svg version="1.2" xmlns="http://www.w3.org/2000/svg" viewBox="0 0 637 272" width="637" height="272"><style>.s0{opacity: 1;fill:#806aef}</style><path class="s0" d="m78 0.5c15.3 0.2 32.6 1 41 1.9c8 0.9 32.7 3.9 55 6.6c22.3 2.7 49 5.8 59.5 6.9c10.4 1.1 28.4 2.8 40 3.8c15.9 1.3 31.6 1.7 64.5 1.7c32.8 0 48.3-0.4 63-1.7c10.7-1 27.6-2.6 37.5-3.8c9.9-1.1 32.6-4 50.5-6.5c17.9-2.5 39.2-5.4 47.5-6.5c8.2-1.1 24.4-2.3 36-2.6c17.7-0.5 22.3-0.3 29.5 1.2c4.7 0.9 10.7 2.7 13.5 3.9c2.7 1.2 7 4 9.5 6.3c2.5 2.2 5.7 6.5 7.2 9.4c1.4 3 3.1 7.4 3.7 9.9c0.6 2.5 1.1 9.6 1.1 15.7c0 6.6-0.7 14.5-1.6 19c-0.9 4.3-2.9 11.6-4.6 16.3c-1.6 4.7-5.2 13-7.8 18.5c-2.7 5.5-8 14.7-11.8 20.5c-3.8 5.8-10.6 15.2-15.2 21c-4.6 5.8-14.4 16.6-21.9 24c-7.5 7.5-19.7 18.4-27.1 24.3c-7.4 6-19.1 14.6-26 19.1c-6.9 4.6-18.4 11.6-25.5 15.7c-7.2 4-19.1 10-26.5 13.5c-7.4 3.4-19.6 8.4-27 11.2c-7.4 2.8-20 6.9-28 9.2c-8 2.2-21.3 5.4-29.5 7c-8.3 1.6-21.4 3.6-29.3 4.4c-8.6 1-23.1 1.6-36.7 1.6c-13.6 0-28.1-0.6-36.8-1.6c-7.8-0.8-21-2.8-29.2-4.4c-8.3-1.6-21.5-4.8-29.5-7c-8-2.3-20.6-6.4-28-9.2c-7.4-2.8-19.6-7.8-27-11.2c-7.4-3.5-19.4-9.5-26.5-13.5c-7.2-4.1-18.6-11.1-25.5-15.7c-6.9-4.5-18.6-13.1-26-19c-7.4-6-19.8-17.1-27.5-24.9c-7.8-7.7-17.1-17.8-20.9-22.5c-3.7-4.7-10.4-13.9-14.7-20.5c-4.4-6.6-10.2-16.5-12.9-22c-2.7-5.5-6.5-14.7-8.4-20.5c-1.9-5.8-4-13.7-4.7-17.5c-0.6-3.9-1-12.1-0.8-18.5c0.4-10.4 0.7-12.1 3.6-18c1.8-3.8 5-8.3 7.7-10.8c2.5-2.3 7.2-5.5 10.3-7.1c3.2-1.6 8.7-3.7 12.3-4.6c3.6-0.9 9-2 12-2.5c3-0.5 17.4-0.7 32-0.5z" /></svg>